{
  "accessors": [
    {
      "bufferView": 2,
      "componentType": 5126,
      "count": 8760,
      "max": [
        5.012404918670654,
        0.7599745392799377,
        16.992809295654297
      ],
      "min": [
        -4.964987754821777,
        -1.633234977722168,
        7.341985702514648
      ],
      "type": "VEC3"
    },
    {
      "bufferView": 2,
      "byteOffset": 105120,
      "componentType": 5126,
      "count": 8760,
      "max": [
        1.0,
        1.0,
        0.9997357726097107
      ],
      "min": [
        -1.0,
        -1.0,
        -1.0
      ],
      "type": "VEC3"
    },
    {
      "bufferView": 1,
      "componentType": 5126,
      "count": 8760,
      "max": [
        0.9990234375,
        -0.0029277801513671875
      ],
      "min": [
        0.0009765625,
        -0.9990234375
      ],
      "type": "VEC2"
    },
    {
      "bufferView": 1,
      "byteOffset": 70080,
      "componentType": 5126,
      "count": 8760,
      "max": [
        0.0,
        0.0
      ],
      "min": [
        0.0,
        0.0
      ],
      "type": "VEC2"
    },
    {
      "bufferView": 0,
      "componentType": 5125,
      "count": 29970,
      "type": "SCALAR"
    },
    {
      "bufferView": 2,
      "byteOffset": 210240,
      "componentType": 5126,
      "count": 32032,
      "max": [
        5.479318141937256,
        3.1707394123077393,
        21.47357749938965
      ],
      "min": [
        -5.337828636169434,
        -3.260185718536377,
        -1.0291625261306763
      ],
      "type": "VEC3"
    },
    {
      "bufferView": 2,
      "byteOffset": 594624,
      "componentType": 5126,
      "count": 32032,
      "max": [
        0.9998723268508911,
        0.9999687075614929,
        0.9999890923500061
      ],
      "min": [
        -0.9999687075614929,
        -0.9999685287475586,
        -1.0
      ],
      "type": "VEC3"
    },
    {
      "bufferView": 1,
      "byteOffset": 140160,
      "componentType": 5126,
      "count": 32032,
      "max": [
        0.9994091391563416,
        -0.023047149181365967
      ],
      "min": [
        0.0005908235325478017,
        -0.9994091987609863
      ],
      "type": "VEC2"
    },
    {
      "bufferView": 1,
      "byteOffset": 396416,
      "componentType": 5126,
      "count": 32032,
      "max": [
        0.0,
        -1.0
      ],
      "min": [
        0.0,
        -1.0
      ],
      "type": "VEC2"
    },
    {
      "bufferView": 0,
      "byteOffset": 119880,
      "componentType": 5125,
      "count": 167550,
      "type": "SCALAR"
    }
  ],
  "asset": {
    "extras": {
      "author": "TRexGamer360 (https://sketchfab.com/TRexGamer360)",
      "license": "CC-BY-4.0 (http://creativecommons.org/licenses/by/4.0/)",
      "source": "https://sketchfab.com/3d-models/fnaf-movie-freddy-ef2c58909f0b4d1693aa7105590da48c",
      "title": "FNaF Movie Freddy"
    },
    "generator": "Sketchfab-16.29.0",
    "version": "2.0"
  },
  "bufferViews": [
    {
      "buffer": 0,
      "byteLength": 790080,
      "name": "floatBufferViews",
      "target": 34963
    },
    {
      "buffer": 0,
      "byteLength": 652672,
      "byteOffset": 790080,
      "byteStride": 8,
      "name": "floatBufferViews",
      "target": 34962
    },
    {
      "buffer": 0,
      "byteLength": 979008,
      "byteOffset": 1442752,
      "byteStride": 12,
      "name": "floatBufferViews",
      "target": 34962
    }
  ],
  "buffers": [
    {
      "byteLength": 2421760,
      "uri": "scene.bin"
    }
  ],
  "extensionsUsed": [
    "KHR_materials_specular"
  ],
  "images": [
    {
      "uri": "textures/Material.002_baseColor.png"
    },
    {
      "uri": "textures/Material.001_baseColor.png"
    }
  ],
  "materials": [
    {
      "doubleSided": true,
      "extensions": {
        "KHR_materials_specular": {
          "specularColorFactor": [
            1.0,
            1.0,
            1.0
          ],
          "specularFactor": 1.0
        }
      },
      "name": "Material.002",
      "pbrMetallicRoughness": {
        "baseColorTexture": {
          "index": 0
        },
        "metallicFactor": 0.0
      }
    },
    {
      "doubleSided": true,
      "extensions": {
        "KHR_materials_specular": {
          "specularColorFactor": [
            1.0,
            1.0,
            1.0
          ],
          "specularFactor": 0.0
        }
      },
      "name": "Material.001",
      "pbrMetallicRoughness": {
        "baseColorTexture": {
          "index": 1
        },
        "metallicFactor": 0.0
      }
    }
  ],
  "meshes": [
    {
      "name": "mesh.002_Material.002_0",
      "primitives": [
        {
          "attributes": {
            "NORMAL": 1,
            "POSITION": 0,
            "TEXCOORD_0": 2,
            "TEXCOORD_1": 3
          },
          "indices": 4,
          "material": 0,
          "mode": 4
        }
      ]
    },
    {
      "name": "mesh.002_Material.001_0",
      "primitives": [
        {
          "attributes": {
            "NORMAL": 6,
            "POSITION": 5,
            "TEXCOORD_0": 7,
            "TEXCOORD_1": 8
          },
          "indices": 9,
          "material": 1,
          "mode": 4
        }
      ]
    }
  ],
  "nodes": [
    {
      "children": [
        1
      ],
      "matrix": [
        1.0,
        0.0,
        0.0,
        0.0,
        0.0,
        2.220446049250313e-16,
        -1.0,
        0.0,
        0.0,
        1.0,
        2.220446049250313e-16,
        0.0,
        0.0,
        0.0,
        0.0,
        1.0
      ],
      "name": "Sketchfab_model"
    },
    {
      "children": [
        2
      ],
      "matrix": [
        1.0,
        0.0,
        0.0,
        0.0,
        0.0,
        0.0,
        1.0,
        0.0,
        0.0,
        -1.0,
        0.0,
        0.0,
        0.0,
        0.0,
        0.0,
        1.0
      ],
      "name": "Movie_Freddy.fbx"
    },
    {
      "children": [
        3
      ],
      "name": "RootNode"
    },
    {
      "children": [
        4,
        5
      ],
      "matrix": [
        0.07950373739004135,
        0.0,
        0.0,
        0.0,
        0.0,
        -1.2952802909775287e-08,
        -0.0795037373900403,
        0.0,
        0.0,
        0.0795037373900403,
        -1.2952802909775287e-08,
        0.0,
        0.0,
        0.0,
        0.0,
        1.0
      ],
      "name": "mesh.002"
    },
    {
      "mesh": 0,
      "name": "mesh.002_Material.002_0"
    },
    {
      "mesh": 1,
      "name": "mesh.002_Material.001_0"
    }
  ],
  "samplers": [
    {
      "magFilter": 9729,
      "minFilter": 9987,
      "wrapS": 10497,
      "wrapT": 10497
    }
  ],
  "scene": 0,
  "scenes": [
    {
      "name": "Sketchfab_Scene",
      "nodes": [
        0
      ]
    }
  ],
  "textures": [
    {
      "sampler": 0,
      "source": 0
    },
    {
      "sampler": 0,
      "source": 1
    }
  ]
}
