{
  "accessors": [
    {
      "bufferView": 2,
      "componentType": 5126,
      "count": 9821,
      "max": [
        3.460609197616577,
        0.7286638021469116,
        17.091196060180664
      ],
      "min": [
        -5.902074337005615,
        -1.6668845415115356,
        7.322892189025879
      ],
      "type": "VEC3"
    },
    {
      "bufferView": 2,
      "byteOffset": 117852,
      "componentType": 5126,
      "count": 9821,
      "max": [
        1.0,
        1.0,
        0.9997357130050659
      ],
      "min": [
        -1.0,
        -1.0,
        -1.0
      ],
      "type": "VEC3"
    },
    {
      "bufferView": 1,
      "componentType": 5126,
      "count": 9821,
      "max": [
        0.9990234375,
        -0.0029277801513671875
      ],
      "min": [
        0.0009765625,
        -0.9990234375
      ],
      "type": "VEC2"
    },
    {
      "bufferView": 0,
      "componentType": 5125,
      "count": 33042,
      "type": "SCALAR"
    },
    {
      "bufferView": 2,
      "byteOffset": 235704,
      "componentType": 5126,
      "count": 15443,
      "max": [
        3.6595871448516846,
        2.9939146041870117,
        21.187131881713867
      ],
      "min": [
        -6.060901165008545,
        -3.611433506011963,
        -0.13959942758083344
      ],
      "type": "VEC3"
    },
    {
      "bufferView": 2,
      "byteOffset": 421020,
      "componentType": 5126,
      "count": 15443,
      "max": [
        0.9999684691429138,
        0.999936044216156,
        0.9999361634254456
      ],
      "min": [
        -0.9999362230300903,
        -0.9999684691429138,
        -0.9999364018440247
      ],
      "type": "VEC3"
    },
    {
      "bufferView": 1,
      "byteOffset": 78568,
      "componentType": 5126,
      "count": 15443,
      "max": [
        1.0000001192092896,
        1.1920928955078125e-07
      ],
      "min": [
        -2.19453877292608e-08,
        -1.0
      ],
      "type": "VEC2"
    },
    {
      "bufferView": 0,
      "byteOffset": 132168,
      "componentType": 5125,
      "count": 80019,
      "type": "SCALAR"
    }
  ],
  "asset": {
    "extras": {
      "author": "TRexGamer360 (https://sketchfab.com/TRexGamer360)",
      "license": "CC-BY-4.0 (http://creativecommons.org/licenses/by/4.0/)",
      "source": "https://sketchfab.com/3d-models/fnaf-movie-chica-51e4bb759e514ddca422fa89ac630423",
      "title": "FNaF Movie Chica"
    },
    "generator": "Sketchfab-16.29.0",
    "version": "2.0"
  },
  "bufferViews": [
    {
      "buffer": 0,
      "byteLength": 452244,
      "name": "floatBufferViews",
      "target": 34963
    },
    {
      "buffer": 0,
      "byteLength": 202112,
      "byteOffset": 452244,
      "byteStride": 8,
      "name": "floatBufferViews",
      "target": 34962
    },
    {
      "buffer": 0,
      "byteLength": 606336,
      "byteOffset": 654356,
      "byteStride": 12,
      "name": "floatBufferViews",
      "target": 34962
    }
  ],
  "buffers": [
    {
      "byteLength": 1260692,
      "uri": "gltf.bin"
    }
  ],
  "extensionsUsed": [
    "KHR_materials_specular"
  ],
  "images": [
    {
      "uri": "textures/Endo_baseColor.png"
    },
    {
      "uri": "textures/Body_baseColor.png"
    }
  ],
  "materials": [
    {
      "doubleSided": true,
      "extensions": {
        "KHR_materials_specular": {
          "specularColorFactor": [
            1.0,
            1.0,
            1.0
          ],
          "specularFactor": 1.0
        }
      },
      "name": "Endo",
      "pbrMetallicRoughness": {
        "baseColorTexture": {
          "index": 0
        },
        "metallicFactor": 0.0
      }
    },
    {
      "doubleSided": true,
      "extensions": {
        "KHR_materials_specular": {
          "specularColorFactor": [
            1.0,
            1.0,
            1.0
          ],
          "specularFactor": 0.0
        }
      },
      "name": "Body",
      "pbrMetallicRoughness": {
        "baseColorTexture": {
          "index": 1
        },
        "metallicFactor": 0.0
      }
    }
  ],
  "meshes": [
    {
      "name": "mesh_Endo_0",
      "primitives": [
        {
          "attributes": {
            "NORMAL": 1,
            "POSITION": 0,
            "TEXCOORD_0": 2
          },
          "indices": 3,
          "material": 0,
          "mode": 4
        }
      ]
    },
    {
      "name": "mesh_Body_0",
      "primitives": [
        {
          "attributes": {
            "NORMAL": 5,
            "POSITION": 4,
            "TEXCOORD_0": 6
          },
          "indices": 7,
          "material": 1,
          "mode": 4
        }
      ]
    }
  ],
  "nodes": [
    {
      "children": [
        1
      ],
      "matrix": [
        1.0,
        0.0,
        0.0,
        0.0,
        0.0,
        2.220446049250313e-16,
        -1.0,
        0.0,
        0.0,
        1.0,
        2.220446049250313e-16,
        0.0,
        0.0,
        0.0,
        0.0,
        1.0
      ],
      "name": "Sketchfab_model"
    },
    {
      "children": [
        2
      ],
      "matrix": [
        1.0,
        0.0,
        0.0,
        0.0,
        0.0,
        0.0,
        1.0,
        0.0,
        0.0,
        -1.0,
        0.0,
        0.0,
        0.0,
        0.0,
        0.0,
        1.0
      ],
      "name": "Movie_Chica.fbx"
    },
    {
      "children": [
        3
      ],
      "name": "RootNode"
    },
    {
      "children": [
        4,
        5
      ],
      "matrix": [
        1.0,
        0.0,
        0.0,
        0.0,
        0.0,
        -1.6292067939183141e-07,
        -0.9999999999999868,
        0.0,
        0.0,
        0.9999999999999868,
        -1.6292067939183141e-07,
        0.0,
        0.0,
        0.0,
        0.0,
        1.0
      ],
      "name": "mesh"
    },
    {
      "mesh": 0,
      "name": "mesh_Endo_0"
    },
    {
      "mesh": 1,
      "name": "mesh_Body_0"
    }
  ],
  "samplers": [
    {
      "magFilter": 9729,
      "minFilter": 9987,
      "wrapS": 10497,
      "wrapT": 10497
    }
  ],
  "scene": 0,
  "scenes": [
    {
      "name": "Sketchfab_Scene",
      "nodes": [
        0
      ]
    }
  ],
  "textures": [
    {
      "sampler": 0,
      "source": 0
    },
    {
      "sampler": 0,
      "source": 1
    }
  ]
}
